# xmcd
#
# Track frame offsets:
#	150
#	10482
#	20875
#	33630
#	46702
#	73742
#	84082
#	99595
#	111160
#	123170
#
# Disc length: 1788
#
# Revision: 1
# Processed by: cddbd v1.5.1PL0 Copyright (c) Steve Scherf et al.
# Submitted via: FreeRIP 2.92 
# Normalized: r0:TDELIM( - )
#
DISCID=7c06fa0a
DTITLE=from a Jack to a King (Country gentlemen)
DYEAR=1900
DGENRE=
TTITLE0=Faron Young - Hello Walls
TTITLE1=George Hamilton IV - Abilene
TTITLE2=Jerry walace - In the Misty Moonlight
TTITLE3=Bobby Helme - My Special Angel
TTITLE4=Jimmy Dean - To a Sleeping Beauty
TTITLE5=Freddy Weller - Indian Lake
TTITLE6=Cal Smith - Country Bumpkin
TTITLE7=Freddy Fender - Before the Next Teardrop Falls
TTITLE8=Jack Greene - There Goes my Everything
TTITLE9=Roger Miller - Husbands and Wives
EXTD=Disk2 of a 2 disk set
EXTT0=
EXTT1=
EXTT2=
EXTT3=
EXTT4=
EXTT5=
EXTT6=
EXTT7=
EXTT8=
EXTT9=
PLAYORDER=
